<svg xmlns="http://www.w3.org/2000/svg" xmlns:xlink="http://www.w3.org/1999/xlink" width="500" zoomAndPan="magnify" viewBox="0 0 375 374.999991" height="500" preserveAspectRatio="xMidYMid meet" version="1.0"><defs><g/></defs><g fill="#0077b5" fill-opacity="1"><g transform="translate(64.733367, 339.443195)"><g><path d="M 24.203125 0 L 24.203125 -322.703125 L 73.34375 -322.703125 L 73.34375 -41.8125 L 135.5 -41.8125 L 135.5 0 Z M 24.203125 0 "/></g></g></g><g fill="#0077b5" fill-opacity="1"><g transform="translate(134.046868, 339.443195)"><g><path d="M 160.4375 -88.015625 C 160.4375 -56.835938 154.875 -33.757812 143.75 -18.78125 C 132.625 -3.8125 115.144531 3.671875 91.3125 3.671875 C 67.476562 3.671875 49.660156 -4.300781 37.859375 -20.25 C 26.066406 -36.207031 20.171875 -59.160156 20.171875 -89.109375 L 20.171875 -229.75 C 20.171875 -277.789062 32.757812 -307.800781 57.9375 -319.78125 C 67.226562 -324.175781 78.472656 -326.375 91.671875 -326.375 C 137.023438 -326.375 159.703125 -297.769531 159.703125 -240.5625 L 159.703125 -196.1875 L 112.21875 -196.1875 L 112.21875 -237.453125 C 112.21875 -254.078125 110.8125 -265.960938 108 -273.109375 C 105.1875 -280.265625 99.679688 -283.84375 91.484375 -283.84375 C 83.296875 -283.84375 77.613281 -280.050781 74.4375 -272.46875 C 71.257812 -264.882812 69.671875 -253.269531 69.671875 -237.625 L 69.671875 -86.90625 C 69.671875 -69.550781 71.195312 -57.144531 74.25 -49.6875 C 77.3125 -42.226562 82.875 -38.5 90.9375 -38.5 C 99.007812 -38.5 104.570312 -42.285156 107.625 -49.859375 C 110.6875 -57.441406 112.21875 -69.976562 112.21875 -87.46875 L 112.21875 -133.671875 L 160.4375 -133.671875 Z M 160.4375 -88.015625 "/></g></g></g></svg>