<svg xmlns="http://www.w3.org/2000/svg" xmlns:xlink="http://www.w3.org/1999/xlink" width="500" zoomAndPan="magnify" viewBox="0 0 375 374.999991" height="500" preserveAspectRatio="xMidYMid meet" version="1.0"><defs><g/></defs><g fill="#ffffff" fill-opacity="1"><g transform="translate(9.57775, 230.033466)"><g><path d="M 6.609375 0 L 6.609375 -88.0625 L 20.015625 -88.0625 L 20.015625 -11.40625 L 36.96875 -11.40625 L 36.96875 0 Z M 6.609375 0 "/></g></g></g><g fill="#ffffff" fill-opacity="1"><g transform="translate(41.399242, 230.033466)"><g><path d="M 6.75 0 L 6.75 -88.8125 L 19.96875 -88.8125 L 19.96875 0 Z M 6.75 0 "/></g></g></g><g fill="#ffffff" fill-opacity="1"><g transform="translate(61.864194, 230.033466)"><g><path d="M 24.3125 -9.8125 C 26.382812 -9.8125 27.796875 -10.71875 28.546875 -12.53125 C 29.296875 -14.351562 29.671875 -17.0625 29.671875 -20.65625 L 29.671875 -54.234375 C 29.671875 -57.898438 29.285156 -60.648438 28.515625 -62.484375 C 27.753906 -64.328125 26.335938 -65.25 24.265625 -65.25 C 22.203125 -65.25 20.785156 -64.335938 20.015625 -62.515625 C 19.242188 -60.703125 18.859375 -57.941406 18.859375 -54.234375 L 18.859375 -20.65625 C 18.859375 -15.15625 19.757812 -11.789062 21.5625 -10.5625 C 22.300781 -10.0625 23.21875 -9.8125 24.3125 -9.8125 Z M 24.3125 0.90625 C 17.238281 0.90625 12.332031 -1.210938 9.59375 -5.453125 C 6.863281 -9.691406 5.5 -15.8125 5.5 -23.8125 L 5.5 -51.890625 C 5.5 -67.929688 11.753906 -75.953125 24.265625 -75.953125 C 36.773438 -75.953125 43.03125 -67.929688 43.03125 -51.890625 L 43.03125 -23.8125 C 43.03125 -11.300781 39.8125 -3.613281 33.375 -0.75 C 30.90625 0.351562 27.882812 0.90625 24.3125 0.90625 Z M 24.3125 0.90625 "/></g></g></g><g fill="#ffffff" fill-opacity="1"><g transform="translate(104.141701, 230.033466)"><g><path d="M 4.40625 13.265625 L 4.40625 4.109375 L 8.75 4.109375 C 10.414062 4.109375 11.707031 3.972656 12.625 3.703125 C 13.550781 3.429688 14.0625 2.894531 14.15625 2.09375 C 14.351562 1.757812 14.453125 1.144531 14.453125 0.25 C 14.453125 -0.644531 14.335938 -1.863281 14.109375 -3.40625 L 2.09375 -75.09375 L 14.703125 -75.09375 L 19.515625 -36.671875 L 21.515625 -16.46875 L 22.609375 -16.46875 L 24.421875 -36.671875 L 28.8125 -75.09375 L 41.375 -75.09375 L 28.375 3.203125 C 27.800781 6.972656 26.847656 9.59375 25.515625 11.0625 C 24.179688 12.53125 21.847656 13.265625 18.515625 13.265625 Z M 4.40625 13.265625 "/></g></g></g><g fill="#ffffff" fill-opacity="1"><g transform="translate(140.51581, 230.033466)"><g><path d="M 19.3125 0.75 C 15.28125 0.75 12.257812 -0.378906 10.25 -2.640625 C 8.25 -4.910156 6.957031 -7.789062 6.375 -11.28125 C 5.789062 -14.769531 5.5 -19 5.5 -23.96875 L 5.5 -54.53125 C 5.5 -60.800781 6.648438 -65.9375 8.953125 -69.9375 C 11.253906 -73.945312 15.054688 -75.953125 20.359375 -75.953125 C 22.429688 -75.953125 24.328125 -75.453125 26.046875 -74.453125 C 27.765625 -73.453125 29.101562 -72.097656 30.0625 -70.390625 L 30.0625 -88.8125 L 43.328125 -88.8125 L 43.328125 0 L 30.0625 0 L 30.0625 -6.953125 C 28.0625 -1.816406 24.476562 0.75 19.3125 0.75 Z M 18.859375 -22.171875 C 18.859375 -18.023438 19.25 -14.925781 20.03125 -12.875 C 20.820312 -10.832031 22.289062 -9.8125 24.4375 -9.8125 C 26.59375 -9.8125 28.078125 -10.832031 28.890625 -12.875 C 29.710938 -14.925781 30.125 -18.359375 30.125 -23.171875 L 30.125 -53.1875 C 30.125 -59.351562 29.1875 -63.085938 27.3125 -64.390625 C 26.519531 -64.921875 25.554688 -65.1875 24.421875 -65.1875 C 22.179688 -65.1875 20.691406 -64.171875 19.953125 -62.140625 C 19.222656 -60.109375 18.859375 -57.070312 18.859375 -53.03125 Z M 18.859375 -22.171875 "/></g></g></g><g fill="#ffffff" fill-opacity="1"><g transform="translate(184.194115, 230.033466)"><g><path d="M 43.78125 -24.015625 C 43.78125 -15.503906 42.257812 -9.207031 39.21875 -5.125 C 36.1875 -1.039062 31.414062 1 24.90625 1 C 18.40625 1 13.546875 -1.175781 10.328125 -5.53125 C 7.109375 -9.882812 5.5 -16.144531 5.5 -24.3125 L 5.5 -62.6875 C 5.5 -75.800781 8.9375 -83.992188 15.8125 -87.265625 C 18.34375 -88.460938 21.410156 -89.0625 25.015625 -89.0625 C 37.390625 -89.0625 43.578125 -81.253906 43.578125 -65.640625 L 43.578125 -53.53125 L 30.625 -53.53125 L 30.625 -64.796875 C 30.625 -69.328125 30.238281 -72.566406 29.46875 -74.515625 C 28.695312 -76.472656 27.191406 -77.453125 24.953125 -77.453125 C 22.722656 -77.453125 21.175781 -76.414062 20.3125 -74.34375 C 19.445312 -72.28125 19.015625 -69.113281 19.015625 -64.84375 L 19.015625 -23.71875 C 19.015625 -18.976562 19.429688 -15.585938 20.265625 -13.546875 C 21.097656 -11.515625 22.613281 -10.5 24.8125 -10.5 C 27.019531 -10.5 28.539062 -11.535156 29.375 -13.609375 C 30.207031 -15.679688 30.625 -19.097656 30.625 -23.859375 L 30.625 -36.46875 L 43.78125 -36.46875 Z M 43.78125 -24.015625 "/></g></g></g><g fill="#ffffff" fill-opacity="1"><g transform="translate(226.021367, 230.033466)"><g><path d="M 29.5625 -40.734375 C 25.363281 -38.859375 22.53125 -37.085938 21.0625 -35.421875 C 19.59375 -33.753906 18.859375 -31.171875 18.859375 -27.671875 L 18.859375 -19.609375 C 18.859375 -16.109375 19.222656 -13.597656 19.953125 -12.078125 C 20.691406 -10.566406 21.882812 -9.8125 23.53125 -9.8125 C 25.1875 -9.8125 26.539062 -10.367188 27.59375 -11.484375 C 28.644531 -12.597656 29.300781 -13.859375 29.5625 -15.265625 Z M 19.109375 0.75 C 14.210938 0.75 10.710938 -1.007812 8.609375 -4.53125 C 6.503906 -8.050781 5.421875 -13.113281 5.359375 -19.71875 L 5.359375 -24.515625 C 5.359375 -30.921875 7.09375 -35.773438 10.5625 -39.078125 C 12.789062 -41.242188 16.578125 -43.34375 21.921875 -45.375 C 22.878906 -45.75 24.21875 -46.25 25.9375 -46.875 C 27.65625 -47.507812 28.863281 -47.960938 29.5625 -48.234375 L 29.5625 -54.78125 C 29.5625 -58.851562 29.269531 -61.613281 28.6875 -63.0625 C 28.101562 -64.519531 26.769531 -65.25 24.6875 -65.25 C 22.601562 -65.25 21.210938 -64.476562 20.515625 -62.9375 C 19.816406 -61.40625 19.46875 -58.820312 19.46875 -55.1875 L 19.46875 -51.828125 L 6.359375 -51.828125 L 6.359375 -54.09375 C 6.359375 -61.195312 7.679688 -66.613281 10.328125 -70.34375 C 12.984375 -74.082031 17.6875 -75.953125 24.4375 -75.953125 C 31.195312 -75.953125 36 -74.082031 38.84375 -70.34375 C 41.695312 -66.613281 43.125 -61.007812 43.125 -53.53125 L 43.125 0 L 29.765625 0 L 29.765625 -7.453125 C 29.097656 -5.148438 27.820312 -3.207031 25.9375 -1.625 C 24.050781 -0.0390625 21.773438 0.75 19.109375 0.75 Z M 19.109375 0.75 "/></g></g></g><g fill="#ffffff" fill-opacity="1"><g transform="translate(268.849194, 230.033466)"><g><path d="M 32.71875 -75.953125 C 32.851562 -75.953125 32.921875 -73.148438 32.921875 -67.546875 L 32.875 -64.75 C 30.207031 -64.75 27.585938 -64.296875 25.015625 -63.390625 C 22.453125 -62.492188 20.769531 -61.210938 19.96875 -59.546875 L 19.96875 0 L 6.609375 0 L 6.609375 -75.046875 L 19.96875 -75.046875 L 19.96875 -66.6875 C 20.832031 -69.625 22.351562 -71.898438 24.53125 -73.515625 C 26.71875 -75.140625 29.445312 -75.953125 32.71875 -75.953125 Z M 32.71875 -75.953125 "/></g></g></g><g fill="#ffffff" fill-opacity="1"><g transform="translate(297.01858, 230.033466)"><g><path d="M 6.796875 0 L 6.796875 -75.046875 L 20.0625 -75.046875 L 20.0625 0 Z M 6.65625 -81.953125 L 6.65625 -93.46875 L 20.015625 -93.46875 L 20.015625 -81.953125 Z M 6.65625 -81.953125 "/></g></g></g><g fill="#ffffff" fill-opacity="1"><g transform="translate(317.48354, 230.033466)"><g><path d="M 24.109375 0.90625 C 15.671875 0.90625 10.238281 -2.3125 7.8125 -8.75 C 6.269531 -12.851562 5.5 -18.257812 5.5 -24.96875 L 5.5 -52.9375 C 5.5 -68.28125 11.890625 -75.953125 24.671875 -75.953125 C 31.472656 -75.953125 36.179688 -73.929688 38.796875 -69.890625 C 41.421875 -65.859375 42.734375 -60.125 42.734375 -52.6875 L 42.734375 -36.625 L 18.859375 -36.625 L 18.859375 -21.859375 C 18.859375 -16.660156 19.304688 -13.351562 20.203125 -11.9375 C 21.109375 -10.519531 22.460938 -9.8125 24.265625 -9.8125 C 26.066406 -9.8125 27.234375 -10.226562 27.765625 -11.0625 C 28.671875 -12.53125 29.1875 -14.03125 29.3125 -15.5625 C 29.445312 -17.09375 29.515625 -19.191406 29.515625 -21.859375 L 29.515625 -28.46875 L 42.625 -28.46875 L 42.625 -24.46875 C 42.625 -17.664062 42.085938 -12.78125 41.015625 -9.8125 C 39.953125 -6.84375 38.722656 -4.691406 37.328125 -3.359375 C 34.390625 -0.515625 29.984375 0.90625 24.109375 0.90625 Z M 18.8125 -44.375 L 29.515625 -44.375 L 29.515625 -53.984375 C 29.515625 -58.085938 29.1875 -61.03125 28.53125 -62.8125 C 27.882812 -64.601562 26.5625 -65.5 24.5625 -65.5 C 24.53125 -65.5 24.515625 -65.5 24.515625 -65.5 C 21.046875 -65.5 19.175781 -62.84375 18.90625 -57.53125 C 18.84375 -56.53125 18.8125 -55.234375 18.8125 -53.640625 Z M 18.8125 -44.375 "/></g></g></g></svg>